<mxfile host="app.diagrams.net" agent="Mozilla/5.0 (X11; Ubuntu; Linux x86_64; rv:131.0) Gecko/20100101 Firefox/131.0" version="26.2.13">
  <diagram name="Page-1" id="XyoaTgYUVWc8p9n4ljft">
    <mxGraphModel dx="1428" dy="725" grid="1" gridSize="10" guides="1" tooltips="1" connect="1" arrows="1" fold="1" page="1" pageScale="1" pageWidth="827" pageHeight="1169" math="0" shadow="0">
      <root>
        <mxCell id="0" />
        <mxCell id="1" parent="0" />
        <mxCell id="Hq2S_inoe9SXqbqvYREo-1" value="&lt;div&gt;RIE&lt;/div&gt;&lt;div&gt;FIP Publication&lt;/div&gt;" style="ellipse;shape=cloud;whiteSpace=wrap;html=1;" vertex="1" parent="1">
          <mxGeometry x="340" y="20" width="120" height="80" as="geometry" />
        </mxCell>
        <mxCell id="Hq2S_inoe9SXqbqvYREo-2" value="&lt;div&gt;RIE&lt;/div&gt;&lt;div&gt;FIP Admin&lt;/div&gt;" style="ellipse;shape=cloud;whiteSpace=wrap;html=1;" vertex="1" parent="1">
          <mxGeometry x="354" y="690" width="120" height="80" as="geometry" />
        </mxCell>
        <mxCell id="Hq2S_inoe9SXqbqvYREo-24" style="edgeStyle=orthogonalEdgeStyle;rounded=0;orthogonalLoop=1;jettySize=auto;html=1;" edge="1" parent="1" source="Hq2S_inoe9SXqbqvYREo-3" target="Hq2S_inoe9SXqbqvYREo-1">
          <mxGeometry relative="1" as="geometry" />
        </mxCell>
        <mxCell id="Hq2S_inoe9SXqbqvYREo-43" style="edgeStyle=orthogonalEdgeStyle;rounded=0;orthogonalLoop=1;jettySize=auto;html=1;endArrow=none;startFill=0;fillColor=#d5e8d4;strokeColor=#82b366;" edge="1" parent="1" source="Hq2S_inoe9SXqbqvYREo-3">
          <mxGeometry relative="1" as="geometry">
            <mxPoint x="100" y="150" as="targetPoint" />
          </mxGeometry>
        </mxCell>
        <mxCell id="Hq2S_inoe9SXqbqvYREo-3" value="" style="image;aspect=fixed;perimeter=ellipsePerimeter;html=1;align=center;shadow=0;dashed=0;spacingTop=3;image=img/lib/active_directory/generic_server.svg;" vertex="1" parent="1">
          <mxGeometry x="386" y="140" width="28.000000000000004" height="50" as="geometry" />
        </mxCell>
        <mxCell id="Hq2S_inoe9SXqbqvYREo-4" value="&lt;div&gt;Caddy&lt;/div&gt;&lt;div&gt;Reverse Proxy&lt;/div&gt;&lt;div&gt;Load Balancer&lt;br&gt;&lt;/div&gt;" style="text;html=1;align=center;verticalAlign=middle;resizable=0;points=[];autosize=1;strokeColor=none;fillColor=none;" vertex="1" parent="1">
          <mxGeometry x="410" y="100" width="100" height="60" as="geometry" />
        </mxCell>
        <mxCell id="Hq2S_inoe9SXqbqvYREo-40" style="edgeStyle=orthogonalEdgeStyle;rounded=0;orthogonalLoop=1;jettySize=auto;html=1;endArrow=none;startFill=0;fillColor=#d5e8d4;strokeColor=#82b366;" edge="1" parent="1" source="Hq2S_inoe9SXqbqvYREo-5">
          <mxGeometry relative="1" as="geometry">
            <mxPoint x="100" y="150" as="targetPoint" />
          </mxGeometry>
        </mxCell>
        <mxCell id="Hq2S_inoe9SXqbqvYREo-5" value="" style="image;aspect=fixed;perimeter=ellipsePerimeter;html=1;align=center;shadow=0;dashed=0;spacingTop=3;image=img/lib/active_directory/web_server.svg;" vertex="1" parent="1">
          <mxGeometry x="80" y="200" width="40" height="50" as="geometry" />
        </mxCell>
        <mxCell id="Hq2S_inoe9SXqbqvYREo-41" style="edgeStyle=orthogonalEdgeStyle;rounded=0;orthogonalLoop=1;jettySize=auto;html=1;endArrow=none;startFill=0;fillColor=#d5e8d4;strokeColor=#82b366;" edge="1" parent="1" source="Hq2S_inoe9SXqbqvYREo-7">
          <mxGeometry relative="1" as="geometry">
            <mxPoint x="140" y="150" as="targetPoint" />
          </mxGeometry>
        </mxCell>
        <mxCell id="Hq2S_inoe9SXqbqvYREo-47" style="edgeStyle=orthogonalEdgeStyle;rounded=0;orthogonalLoop=1;jettySize=auto;html=1;endArrow=none;startFill=0;fillColor=#dae8fc;strokeColor=#6c8ebf;" edge="1" parent="1" source="Hq2S_inoe9SXqbqvYREo-7">
          <mxGeometry relative="1" as="geometry">
            <mxPoint x="150" y="330" as="targetPoint" />
          </mxGeometry>
        </mxCell>
        <mxCell id="Hq2S_inoe9SXqbqvYREo-7" value="" style="image;aspect=fixed;perimeter=ellipsePerimeter;html=1;align=center;shadow=0;dashed=0;spacingTop=3;image=img/lib/active_directory/web_server.svg;" vertex="1" parent="1">
          <mxGeometry x="120" y="200" width="40" height="50" as="geometry" />
        </mxCell>
        <mxCell id="Hq2S_inoe9SXqbqvYREo-42" style="edgeStyle=orthogonalEdgeStyle;rounded=0;orthogonalLoop=1;jettySize=auto;html=1;endArrow=none;startFill=0;fillColor=#d5e8d4;strokeColor=#82b366;" edge="1" parent="1" source="Hq2S_inoe9SXqbqvYREo-8">
          <mxGeometry relative="1" as="geometry">
            <mxPoint x="180" y="150" as="targetPoint" />
          </mxGeometry>
        </mxCell>
        <mxCell id="Hq2S_inoe9SXqbqvYREo-48" style="edgeStyle=orthogonalEdgeStyle;rounded=0;orthogonalLoop=1;jettySize=auto;html=1;endArrow=none;startFill=0;fillColor=#dae8fc;strokeColor=#6c8ebf;" edge="1" parent="1" source="Hq2S_inoe9SXqbqvYREo-8">
          <mxGeometry relative="1" as="geometry">
            <mxPoint x="200" y="330" as="targetPoint" />
          </mxGeometry>
        </mxCell>
        <mxCell id="Hq2S_inoe9SXqbqvYREo-8" value="" style="image;aspect=fixed;perimeter=ellipsePerimeter;html=1;align=center;shadow=0;dashed=0;spacingTop=3;image=img/lib/active_directory/web_server.svg;" vertex="1" parent="1">
          <mxGeometry x="160" y="200" width="40" height="50" as="geometry" />
        </mxCell>
        <mxCell id="Hq2S_inoe9SXqbqvYREo-9" value="&lt;div&gt;API&lt;/div&gt;&lt;div&gt;Nodes&lt;br&gt;&lt;/div&gt;" style="text;html=1;align=center;verticalAlign=middle;resizable=0;points=[];autosize=1;strokeColor=none;fillColor=none;" vertex="1" parent="1">
          <mxGeometry x="11" y="205" width="60" height="40" as="geometry" />
        </mxCell>
        <mxCell id="Hq2S_inoe9SXqbqvYREo-10" value="" style="image;aspect=fixed;perimeter=ellipsePerimeter;html=1;align=center;shadow=0;dashed=0;spacingTop=3;image=img/lib/active_directory/database_server.svg;" vertex="1" parent="1">
          <mxGeometry x="600" y="320" width="41" height="50" as="geometry" />
        </mxCell>
        <mxCell id="Hq2S_inoe9SXqbqvYREo-11" value="" style="image;aspect=fixed;perimeter=ellipsePerimeter;html=1;align=center;shadow=0;dashed=0;spacingTop=3;image=img/lib/active_directory/database_server.svg;" vertex="1" parent="1">
          <mxGeometry x="641" y="320" width="41" height="50" as="geometry" />
        </mxCell>
        <mxCell id="Hq2S_inoe9SXqbqvYREo-12" value="&lt;div&gt;Database&lt;/div&gt;&lt;div&gt;Cluster&lt;/div&gt;&lt;div&gt;Patroni&lt;br&gt;&lt;/div&gt;" style="text;html=1;align=center;verticalAlign=middle;resizable=0;points=[];autosize=1;strokeColor=none;fillColor=none;" vertex="1" parent="1">
          <mxGeometry x="700" y="320" width="70" height="60" as="geometry" />
        </mxCell>
        <mxCell id="Hq2S_inoe9SXqbqvYREo-13" value="" style="image;aspect=fixed;perimeter=ellipsePerimeter;html=1;align=center;shadow=0;dashed=0;spacingTop=3;image=img/lib/active_directory/database_server.svg;" vertex="1" parent="1">
          <mxGeometry x="559" y="320" width="41" height="50" as="geometry" />
        </mxCell>
        <mxCell id="Hq2S_inoe9SXqbqvYREo-31" style="edgeStyle=orthogonalEdgeStyle;rounded=0;orthogonalLoop=1;jettySize=auto;html=1;exitX=0;exitY=0.75;exitDx=0;exitDy=0;endArrow=none;startFill=0;fillColor=#f8cecc;strokeColor=#b85450;" edge="1" parent="1">
          <mxGeometry relative="1" as="geometry">
            <mxPoint x="539.14" y="342.5" as="targetPoint" />
            <mxPoint x="624.196881466834" y="294.1002287165197" as="sourcePoint" />
          </mxGeometry>
        </mxCell>
        <mxCell id="Hq2S_inoe9SXqbqvYREo-15" value="" style="image;aspect=fixed;perimeter=ellipsePerimeter;html=1;align=center;shadow=0;dashed=0;spacingTop=3;image=img/lib/active_directory/generic_server.svg;" vertex="1" parent="1">
          <mxGeometry x="624.2" y="280" width="16.8" height="30" as="geometry" />
        </mxCell>
        <mxCell id="Hq2S_inoe9SXqbqvYREo-17" value="" style="image;aspect=fixed;perimeter=ellipsePerimeter;html=1;align=center;shadow=0;dashed=0;spacingTop=3;image=img/lib/active_directory/generic_server.svg;" vertex="1" parent="1">
          <mxGeometry x="640" y="280" width="16.8" height="30" as="geometry" />
        </mxCell>
        <mxCell id="Hq2S_inoe9SXqbqvYREo-18" value="" style="image;aspect=fixed;perimeter=ellipsePerimeter;html=1;align=center;shadow=0;dashed=0;spacingTop=3;image=img/lib/active_directory/generic_server.svg;" vertex="1" parent="1">
          <mxGeometry x="656.8" y="280" width="16.8" height="30" as="geometry" />
        </mxCell>
        <mxCell id="Hq2S_inoe9SXqbqvYREo-19" value="etcd nodes" style="text;html=1;align=center;verticalAlign=middle;resizable=0;points=[];autosize=1;strokeColor=none;fillColor=none;" vertex="1" parent="1">
          <mxGeometry x="682" y="278" width="80" height="30" as="geometry" />
        </mxCell>
        <mxCell id="Hq2S_inoe9SXqbqvYREo-49" style="edgeStyle=orthogonalEdgeStyle;rounded=0;orthogonalLoop=1;jettySize=auto;html=1;entryX=0;entryY=0.75;entryDx=0;entryDy=0;fillColor=#dae8fc;strokeColor=#6c8ebf;" edge="1" parent="1" source="Hq2S_inoe9SXqbqvYREo-20" target="Hq2S_inoe9SXqbqvYREo-13">
          <mxGeometry relative="1" as="geometry" />
        </mxCell>
        <mxCell id="Hq2S_inoe9SXqbqvYREo-51" style="edgeStyle=orthogonalEdgeStyle;rounded=0;orthogonalLoop=1;jettySize=auto;html=1;entryX=0.25;entryY=0;entryDx=0;entryDy=0;fillColor=#dae8fc;strokeColor=#6c8ebf;" edge="1" parent="1" source="Hq2S_inoe9SXqbqvYREo-20" target="Hq2S_inoe9SXqbqvYREo-10">
          <mxGeometry relative="1" as="geometry" />
        </mxCell>
        <mxCell id="Hq2S_inoe9SXqbqvYREo-52" style="edgeStyle=orthogonalEdgeStyle;rounded=0;orthogonalLoop=1;jettySize=auto;html=1;entryX=0.25;entryY=0;entryDx=0;entryDy=0;fillColor=#dae8fc;strokeColor=#6c8ebf;" edge="1" parent="1" source="Hq2S_inoe9SXqbqvYREo-20" target="Hq2S_inoe9SXqbqvYREo-11">
          <mxGeometry relative="1" as="geometry" />
        </mxCell>
        <mxCell id="Hq2S_inoe9SXqbqvYREo-20" value="" style="points=[];aspect=fixed;html=1;align=center;shadow=0;dashed=0;fillColor=#FF6A00;strokeColor=none;shape=mxgraph.alibaba_cloud.havip_high-availability_virtual_ip_address;" vertex="1" parent="1">
          <mxGeometry x="460" y="290" width="52.5" height="52.5" as="geometry" />
        </mxCell>
        <mxCell id="Hq2S_inoe9SXqbqvYREo-26" style="edgeStyle=orthogonalEdgeStyle;rounded=0;orthogonalLoop=1;jettySize=auto;html=1;fillColor=#f8cecc;strokeColor=#b85450;" edge="1" parent="1" source="Hq2S_inoe9SXqbqvYREo-21" target="Hq2S_inoe9SXqbqvYREo-22">
          <mxGeometry relative="1" as="geometry" />
        </mxCell>
        <mxCell id="Hq2S_inoe9SXqbqvYREo-28" style="edgeStyle=orthogonalEdgeStyle;rounded=0;orthogonalLoop=1;jettySize=auto;html=1;entryX=0;entryY=0.5;entryDx=0;entryDy=0;fillColor=#f8cecc;strokeColor=#b85450;" edge="1" parent="1" source="Hq2S_inoe9SXqbqvYREo-21" target="Hq2S_inoe9SXqbqvYREo-13">
          <mxGeometry relative="1" as="geometry" />
        </mxCell>
        <mxCell id="Hq2S_inoe9SXqbqvYREo-29" style="edgeStyle=orthogonalEdgeStyle;rounded=0;orthogonalLoop=1;jettySize=auto;html=1;entryX=1;entryY=0.75;entryDx=0;entryDy=0;fillColor=#f8cecc;strokeColor=#b85450;" edge="1" parent="1" source="Hq2S_inoe9SXqbqvYREo-21" target="Hq2S_inoe9SXqbqvYREo-11">
          <mxGeometry relative="1" as="geometry" />
        </mxCell>
        <mxCell id="Hq2S_inoe9SXqbqvYREo-30" style="edgeStyle=orthogonalEdgeStyle;rounded=0;orthogonalLoop=1;jettySize=auto;html=1;entryX=0.75;entryY=1;entryDx=0;entryDy=0;fillColor=#f8cecc;strokeColor=#b85450;" edge="1" parent="1" source="Hq2S_inoe9SXqbqvYREo-21" target="Hq2S_inoe9SXqbqvYREo-10">
          <mxGeometry relative="1" as="geometry" />
        </mxCell>
        <mxCell id="Hq2S_inoe9SXqbqvYREo-36" style="edgeStyle=orthogonalEdgeStyle;rounded=0;orthogonalLoop=1;jettySize=auto;html=1;entryX=0.25;entryY=1;entryDx=0;entryDy=0;fillColor=#f8cecc;strokeColor=#b85450;" edge="1" parent="1" source="Hq2S_inoe9SXqbqvYREo-21" target="Hq2S_inoe9SXqbqvYREo-7">
          <mxGeometry relative="1" as="geometry" />
        </mxCell>
        <mxCell id="Hq2S_inoe9SXqbqvYREo-37" style="edgeStyle=orthogonalEdgeStyle;rounded=0;orthogonalLoop=1;jettySize=auto;html=1;entryX=0.25;entryY=1;entryDx=0;entryDy=0;fillColor=#f8cecc;strokeColor=#b85450;" edge="1" parent="1" source="Hq2S_inoe9SXqbqvYREo-21" target="Hq2S_inoe9SXqbqvYREo-8">
          <mxGeometry relative="1" as="geometry" />
        </mxCell>
        <mxCell id="Hq2S_inoe9SXqbqvYREo-38" style="edgeStyle=orthogonalEdgeStyle;rounded=0;orthogonalLoop=1;jettySize=auto;html=1;entryX=0.5;entryY=1;entryDx=0;entryDy=0;fillColor=#f8cecc;strokeColor=#b85450;" edge="1" parent="1" source="Hq2S_inoe9SXqbqvYREo-21" target="Hq2S_inoe9SXqbqvYREo-3">
          <mxGeometry relative="1" as="geometry" />
        </mxCell>
        <mxCell id="Hq2S_inoe9SXqbqvYREo-21" value="" style="points=[];aspect=fixed;html=1;align=center;shadow=0;dashed=0;fillColor=#FF6A00;strokeColor=none;shape=mxgraph.alibaba_cloud.bastionhost;" vertex="1" parent="1">
          <mxGeometry x="388" y="620" width="50.53" height="40" as="geometry" />
        </mxCell>
        <mxCell id="Hq2S_inoe9SXqbqvYREo-44" style="edgeStyle=orthogonalEdgeStyle;rounded=0;orthogonalLoop=1;jettySize=auto;html=1;endArrow=none;startFill=0;fillColor=#d5e8d4;strokeColor=#82b366;" edge="1" parent="1" source="Hq2S_inoe9SXqbqvYREo-22">
          <mxGeometry relative="1" as="geometry">
            <mxPoint x="240" y="150" as="targetPoint" />
            <Array as="points">
              <mxPoint x="251" y="555" />
              <mxPoint x="251" y="150" />
            </Array>
          </mxGeometry>
        </mxCell>
        <mxCell id="Hq2S_inoe9SXqbqvYREo-22" value="" style="sketch=0;outlineConnect=0;fontColor=#232F3E;gradientColor=none;strokeColor=#232F3E;fillColor=#ffffff;dashed=0;verticalLabelPosition=bottom;verticalAlign=top;align=center;html=1;fontSize=12;fontStyle=0;aspect=fixed;shape=mxgraph.aws4.resourceIcon;resIcon=mxgraph.aws4.monitoring;" vertex="1" parent="1">
          <mxGeometry x="564.2" y="525" width="60" height="60" as="geometry" />
        </mxCell>
        <mxCell id="Hq2S_inoe9SXqbqvYREo-23" value="Bastion" style="text;html=1;align=center;verticalAlign=middle;resizable=0;points=[];autosize=1;strokeColor=none;fillColor=none;" vertex="1" parent="1">
          <mxGeometry x="438.53" y="640" width="60" height="30" as="geometry" />
        </mxCell>
        <mxCell id="Hq2S_inoe9SXqbqvYREo-25" style="edgeStyle=orthogonalEdgeStyle;rounded=0;orthogonalLoop=1;jettySize=auto;html=1;entryX=0.515;entryY=0.925;entryDx=0;entryDy=0;entryPerimeter=0;" edge="1" parent="1" source="Hq2S_inoe9SXqbqvYREo-2" target="Hq2S_inoe9SXqbqvYREo-21">
          <mxGeometry relative="1" as="geometry" />
        </mxCell>
        <mxCell id="Hq2S_inoe9SXqbqvYREo-27" value="&lt;div&gt;Prometheus&lt;/div&gt;&lt;div&gt;Grafana&lt;br&gt;&lt;/div&gt;" style="text;html=1;align=center;verticalAlign=middle;resizable=0;points=[];autosize=1;strokeColor=none;fillColor=none;" vertex="1" parent="1">
          <mxGeometry x="534.2" y="500" width="90" height="40" as="geometry" />
        </mxCell>
        <mxCell id="Hq2S_inoe9SXqbqvYREo-35" style="edgeStyle=orthogonalEdgeStyle;rounded=0;orthogonalLoop=1;jettySize=auto;html=1;entryX=0.275;entryY=1.08;entryDx=0;entryDy=0;entryPerimeter=0;fillColor=#f8cecc;strokeColor=#b85450;" edge="1" parent="1" source="Hq2S_inoe9SXqbqvYREo-21" target="Hq2S_inoe9SXqbqvYREo-5">
          <mxGeometry relative="1" as="geometry" />
        </mxCell>
        <mxCell id="Hq2S_inoe9SXqbqvYREo-39" value="&lt;div&gt;Subnet&lt;/div&gt;&lt;div&gt;Admin&lt;/div&gt;&lt;div&gt;172.18.0.1/24&lt;br&gt;&lt;/div&gt;" style="text;html=1;align=center;verticalAlign=middle;resizable=0;points=[];autosize=1;strokeColor=none;fillColor=none;fontColor=#FF0000;" vertex="1" parent="1">
          <mxGeometry x="171" y="583" width="100" height="60" as="geometry" />
        </mxCell>
        <mxCell id="Hq2S_inoe9SXqbqvYREo-45" value="&lt;div&gt;Subnet&lt;/div&gt;&lt;div&gt;Publication&lt;/div&gt;&lt;div&gt;172.16.0.1/24&lt;br&gt;&lt;/div&gt;" style="text;html=1;align=center;verticalAlign=middle;resizable=0;points=[];autosize=1;strokeColor=none;fillColor=none;fontColor=#00CC00;" vertex="1" parent="1">
          <mxGeometry x="131" y="93" width="100" height="60" as="geometry" />
        </mxCell>
        <mxCell id="Hq2S_inoe9SXqbqvYREo-46" style="edgeStyle=orthogonalEdgeStyle;rounded=0;orthogonalLoop=1;jettySize=auto;html=1;exitX=0.5;exitY=1;exitDx=0;exitDy=0;entryX=0;entryY=0.762;entryDx=0;entryDy=0;entryPerimeter=0;fillColor=#dae8fc;strokeColor=#6c8ebf;" edge="1" parent="1" source="Hq2S_inoe9SXqbqvYREo-5" target="Hq2S_inoe9SXqbqvYREo-20">
          <mxGeometry relative="1" as="geometry" />
        </mxCell>
        <mxCell id="Hq2S_inoe9SXqbqvYREo-54" value="&lt;div&gt;Subnet&lt;/div&gt;&lt;div&gt;Data&lt;/div&gt;&lt;div&gt;172.14.0.1/24&lt;br&gt;&lt;/div&gt;" style="text;html=1;align=center;verticalAlign=middle;resizable=0;points=[];autosize=1;strokeColor=none;fillColor=none;fontColor=#0066CC;" vertex="1" parent="1">
          <mxGeometry x="271" y="265" width="100" height="60" as="geometry" />
        </mxCell>
      </root>
    </mxGraphModel>
  </diagram>
</mxfile>
